<svg xmlns="http://www.w3.org/2000/svg" xmlns:xlink="http://www.w3.org/1999/xlink" width="500" zoomAndPan="magnify" viewBox="0 0 375 374.999991" height="500" preserveAspectRatio="xMidYMid meet" version="1.0"><defs><clipPath id="9e77e45d2f"><path d="M 78 7.980469 L 296.992188 7.980469 L 296.992188 367.230469 L 78 367.230469 Z M 78 7.980469 " clip-rule="nonzero"/></clipPath></defs><g clip-path="url(#9e77e45d2f)"><path fill="#fff" d="M 78.105469 347.382812 L 78.105469 350.1875 C 78.105469 359.445312 85.675781 367.019531 94.933594 367.019531 L 280.0625 367.019531 C 289.320312 367.019531 296.894531 359.445312 296.894531 350.1875 L 296.894531 347.382812 C 296.894531 338.128906 289.320312 330.554688 280.0625 330.554688 L 280.0625 279.503906 C 280.0625 262.113281 268.84375 240.511719 255.097656 230.414062 L 201.523438 190.863281 L 201.523438 184.132812 L 255.097656 144.863281 C 269.125 134.484375 280.0625 112.886719 280.0625 95.777344 L 280.0625 44.445312 C 289.320312 44.445312 296.894531 36.871094 296.894531 27.613281 L 296.894531 24.808594 C 296.894531 15.554688 289.320312 7.980469 280.0625 7.980469 L 94.933594 7.980469 C 85.675781 7.980469 78.105469 15.554688 78.105469 24.808594 L 78.105469 27.613281 C 78.105469 36.871094 85.675781 44.445312 94.933594 44.445312 L 94.933594 95.496094 C 94.933594 112.886719 105.875 134.484375 119.898438 144.582031 L 173.472656 183.851562 L 173.472656 190.585938 L 119.898438 229.855469 C 105.875 240.234375 94.933594 261.832031 94.933594 278.941406 L 94.933594 330.554688 C 85.675781 330.554688 78.105469 338.128906 78.105469 347.382812 Z M 106.152344 279.503906 C 106.152344 265.757812 115.410156 247.527344 126.628906 239.390625 L 182.449219 198.4375 C 183.851562 197.316406 184.691406 195.632812 184.691406 193.949219 L 184.691406 181.609375 C 184.691406 179.925781 183.851562 178.242188 182.449219 177.121094 L 126.628906 135.886719 C 115.691406 127.753906 106.152344 109.519531 106.152344 95.777344 L 106.152344 44.445312 L 268.84375 44.445312 L 268.84375 95.496094 C 268.84375 109.238281 259.304688 127.472656 248.367188 135.605469 L 192.546875 176.839844 C 191.144531 177.960938 190.304688 179.644531 190.304688 181.328125 L 190.304688 193.671875 C 190.304688 195.351562 191.144531 197.035156 192.546875 198.15625 L 248.367188 239.109375 C 259.304688 247.246094 268.84375 265.757812 268.84375 279.222656 L 268.84375 330.554688 L 254.816406 330.554688 L 254.816406 286.515625 C 254.816406 273.613281 246.683594 257.90625 236.585938 250.050781 L 191.144531 216.390625 C 189.179688 214.988281 186.375 214.988281 184.414062 216.390625 L 138.691406 250.050781 C 128.3125 257.625 120.179688 273.613281 120.179688 286.234375 L 120.179688 330.554688 L 106.152344 330.554688 Z M 106.152344 279.503906 " fill-opacity="1" fill-rule="nonzero"/></g><path fill="#cc6d3d" d="M 190.863281 158.328125 L 236.304688 124.667969 C 238.269531 123.265625 239.109375 120.738281 238.269531 118.496094 C 237.425781 116.253906 235.464844 114.570312 232.9375 114.570312 L 141.496094 114.570312 C 138.972656 114.570312 137.007812 116.253906 136.167969 118.496094 C 135.324219 120.738281 136.167969 123.265625 138.128906 124.667969 L 183.851562 158.328125 C 184.972656 159.167969 186.097656 159.449219 187.21875 159.449219 C 188.902344 159.449219 190.023438 159.167969 190.863281 158.328125 Z M 190.863281 158.328125 " fill-opacity="1" fill-rule="nonzero"/></svg>