<svg xmlns="http://www.w3.org/2000/svg" xmlns:xlink="http://www.w3.org/1999/xlink" width="500" zoomAndPan="magnify" viewBox="0 0 375 374.999991" height="500" preserveAspectRatio="xMidYMid meet" version="1.0"><defs><g/><clipPath id="6e2bbc33a0"><path d="M 102.035156 152.53125 L 117.785156 152.53125 L 117.785156 178 L 102.035156 178 Z M 102.035156 152.53125 " clip-rule="nonzero"/></clipPath></defs><g fill="#f5fbf9" fill-opacity="1"><g transform="translate(83.596636, 174.789202)"><g><path d="M 14.703125 -16.234375 L 14.03125 -12.25 L 9.28125 -12.25 L 9.28125 0 L 4.703125 0 L 4.703125 -12.25 L -0.359375 -12.25 L -0.359375 -16.234375 Z M 14.703125 -16.234375 "/></g></g></g><g fill="#f5fbf9" fill-opacity="1"><g transform="translate(107.299069, 174.789202)"><g/></g></g><g fill="#f5fbf9" fill-opacity="1"><g transform="translate(123.026319, 174.789202)"><g><path d="M 1.421875 0 L 1.890625 -16.234375 L 5.625 -16.234375 L 11.0625 -5.640625 L 16.40625 -16.234375 L 20.140625 -16.234375 L 20.484375 0 L 16.0625 0 L 15.9375 -6.796875 L 12.453125 0 L 9.265625 0 L 5.8125 -6.671875 L 5.59375 0 Z M 1.421875 0 "/></g></g></g><g fill="#f5fbf9" fill-opacity="1"><g transform="translate(154.681081, 174.789202)"><g><path d="M 13.21875 -12.328125 L 5.875 -12.328125 L 5.875 -10.109375 L 12.625 -10.109375 L 12.625 -6.1875 L 5.875 -6.1875 L 5.875 -3.90625 L 13.390625 -3.90625 L 13.125 0 L 1.375 0 L 1.375 -16.234375 L 13.21875 -16.234375 Z M 13.21875 -12.328125 "/></g></g></g><g fill="#f5fbf9" fill-opacity="1"><g transform="translate(178.017883, 174.789202)"><g><path d="M 1.375 0 L 1.375 -16.234375 L 5.9375 -16.234375 L 5.9375 -3.984375 L 12.703125 -3.984375 L 12.4375 0 Z M 1.375 0 "/></g></g></g><g fill="#f5fbf9" fill-opacity="1"><g transform="translate(200.372073, 174.789202)"><g><path d="M 1.375 0 L 1.375 -16.234375 L 5.9375 -16.234375 L 5.9375 0 Z M 1.375 0 "/></g></g></g><g fill="#f5fbf9" fill-opacity="1"><g transform="translate(217.424707, 174.789202)"><g><path d="M 11.734375 -16.234375 L 16.109375 -16.234375 L 16.109375 0 L 12.046875 0 L 5.765625 -8.734375 L 5.765625 0 L 1.375 0 L 1.375 -16.234375 L 5.4375 -16.234375 L 11.734375 -7.515625 Z M 11.734375 -16.234375 "/></g></g></g><g fill="#f5fbf9" fill-opacity="1"><g transform="translate(244.646274, 174.789202)"><g><path d="M 13.21875 -12.328125 L 5.875 -12.328125 L 5.875 -10.109375 L 12.625 -10.109375 L 12.625 -6.1875 L 5.875 -6.1875 L 5.875 -3.90625 L 13.390625 -3.90625 L 13.125 0 L 1.375 0 L 1.375 -16.234375 L 13.21875 -16.234375 Z M 13.21875 -12.328125 "/></g></g></g><g fill="#f5fbf9" fill-opacity="1"><g transform="translate(267.991159, 174.789202)"><g/></g></g><g fill="#f5fbf9" fill-opacity="1"><g transform="translate(140.46773, 192.039201)"><g><path d="M 5.6875 0.046875 C 5.40625 0.015625 4.6875 0 3.53125 0 L 3.25 0 L 3.25 -9.640625 L 1.53125 -9.640625 C 1.019531 -9.640625 0.71875 -9.613281 0.625 -9.5625 C 0.53125 -9.507812 0.457031 -9.460938 0.40625 -9.421875 L 0.375 -9.4375 L 0.375 -11.671875 L 0.40625 -11.6875 C 0.59375 -11.625 1.109375 -11.59375 1.953125 -11.59375 L 7.421875 -11.59375 C 7.929688 -11.59375 8.234375 -11.617188 8.328125 -11.671875 C 8.421875 -11.722656 8.492188 -11.769531 8.546875 -11.8125 L 8.578125 -11.8125 L 8.578125 -9.578125 L 8.546875 -9.546875 C 8.359375 -9.609375 7.84375 -9.640625 7 -9.640625 L 5.6875 -9.640625 Z M 5.6875 0.046875 "/></g></g></g><g fill="#f5fbf9" fill-opacity="1"><g transform="translate(157.019189, 192.039201)"><g><path d="M 3.859375 0.046875 C 3.296875 0.015625 2.628906 0 1.859375 0 L 1.59375 0 L 1.59375 -11.640625 C 1.945312 -11.609375 2.203125 -11.59375 2.359375 -11.59375 L 2.71875 -11.59375 C 3.175781 -11.59375 3.554688 -11.617188 3.859375 -11.671875 L 3.859375 -7.015625 L 7.953125 -7.015625 L 7.953125 -11.640625 C 8.429688 -11.609375 8.898438 -11.59375 9.359375 -11.59375 C 9.816406 -11.59375 10.101562 -11.617188 10.21875 -11.671875 L 10.21875 0.046875 C 9.9375 0.015625 9.382812 0 8.5625 0 L 7.953125 0 L 7.953125 -4.921875 L 3.859375 -4.921875 Z M 3.859375 0.046875 "/></g></g></g><g fill="#f5fbf9" fill-opacity="1"><g transform="translate(176.516208, 192.039201)"><g><path d="M 2.34375 0.0625 C 1.84375 0.0195312 1.257812 0 0.59375 0 L -0.09375 0 L 3.703125 -10.625 C 3.867188 -11.101562 3.953125 -11.378906 3.953125 -11.453125 C 3.953125 -11.535156 3.945312 -11.585938 3.9375 -11.609375 L 3.953125 -11.625 C 4.328125 -11.601562 4.726562 -11.59375 5.15625 -11.59375 C 5.5 -11.59375 5.914062 -11.597656 6.40625 -11.609375 L 6.421875 -11.59375 C 6.410156 -11.570312 6.40625 -11.539062 6.40625 -11.5 C 6.40625 -11.394531 6.488281 -11.101562 6.65625 -10.625 L 10.53125 0.03125 C 10.414062 0.0195312 10.28125 0.015625 10.125 0.015625 C 10.125 0.015625 9.972656 0.0078125 9.671875 0 C 9.523438 0 9.394531 0 9.28125 0 L 7.921875 0 L 7.109375 -2.515625 L 3.171875 -2.515625 Z M 6.421875 -4.609375 L 5.109375 -8.65625 L 3.828125 -4.609375 Z M 6.421875 -4.609375 "/></g></g></g><g fill="#f5fbf9" fill-opacity="1"><g transform="translate(194.557883, 192.039201)"><g><path d="M 5.6875 0.046875 C 5.40625 0.015625 4.6875 0 3.53125 0 L 3.25 0 L 3.25 -9.640625 L 1.53125 -9.640625 C 1.019531 -9.640625 0.71875 -9.613281 0.625 -9.5625 C 0.53125 -9.507812 0.457031 -9.460938 0.40625 -9.421875 L 0.375 -9.4375 L 0.375 -11.671875 L 0.40625 -11.6875 C 0.59375 -11.625 1.109375 -11.59375 1.953125 -11.59375 L 7.421875 -11.59375 C 7.929688 -11.59375 8.234375 -11.617188 8.328125 -11.671875 C 8.421875 -11.722656 8.492188 -11.769531 8.546875 -11.8125 L 8.578125 -11.8125 L 8.578125 -9.578125 L 8.546875 -9.546875 C 8.359375 -9.609375 7.84375 -9.640625 7 -9.640625 L 5.6875 -9.640625 Z M 5.6875 0.046875 "/></g></g></g><g clip-path="url(#6e2bbc33a0)"><path fill="#f5fbf9" d="M 102.042969 176.503906 L 102.042969 176.703125 C 102.042969 177.355469 102.578125 177.890625 103.230469 177.890625 L 116.308594 177.890625 C 116.960938 177.890625 117.496094 177.355469 117.496094 176.703125 L 117.496094 176.503906 C 117.496094 175.851562 116.960938 175.316406 116.308594 175.316406 L 116.308594 171.710938 C 116.308594 170.480469 115.515625 168.957031 114.542969 168.242188 L 110.761719 165.449219 L 110.761719 164.972656 L 114.542969 162.199219 C 115.535156 161.46875 116.308594 159.941406 116.308594 158.734375 L 116.308594 155.105469 C 116.960938 155.105469 117.496094 154.574219 117.496094 153.917969 L 117.496094 153.71875 C 117.496094 153.066406 116.960938 152.53125 116.308594 152.53125 L 103.230469 152.53125 C 102.578125 152.53125 102.042969 153.066406 102.042969 153.71875 L 102.042969 153.917969 C 102.042969 154.574219 102.578125 155.105469 103.230469 155.105469 L 103.230469 158.714844 C 103.230469 159.941406 104.003906 161.46875 104.996094 162.179688 L 108.777344 164.953125 L 108.777344 165.429688 L 104.996094 168.203125 C 104.003906 168.9375 103.230469 170.460938 103.230469 171.671875 L 103.230469 175.316406 C 102.578125 175.316406 102.042969 175.851562 102.042969 176.503906 Z M 104.023438 171.710938 C 104.023438 170.738281 104.679688 169.449219 105.46875 168.875 L 109.414062 165.984375 C 109.511719 165.90625 109.570312 165.785156 109.570312 165.667969 L 109.570312 164.796875 C 109.570312 164.675781 109.511719 164.558594 109.414062 164.476562 L 105.46875 161.566406 C 104.699219 160.992188 104.023438 159.703125 104.023438 158.734375 L 104.023438 155.105469 L 115.515625 155.105469 L 115.515625 158.714844 C 115.515625 159.683594 114.839844 160.972656 114.070312 161.546875 L 110.125 164.457031 C 110.027344 164.539062 109.96875 164.65625 109.96875 164.777344 L 109.96875 165.648438 C 109.96875 165.765625 110.027344 165.886719 110.125 165.964844 L 114.070312 168.855469 C 114.839844 169.429688 115.515625 170.738281 115.515625 171.691406 L 115.515625 175.316406 L 114.523438 175.316406 L 114.523438 172.203125 C 114.523438 171.292969 113.949219 170.183594 113.238281 169.628906 L 110.027344 167.253906 C 109.890625 167.152344 109.691406 167.152344 109.550781 167.253906 L 106.324219 169.628906 C 105.589844 170.164062 105.015625 171.292969 105.015625 172.183594 L 105.015625 175.316406 L 104.023438 175.316406 Z M 104.023438 171.710938 " fill-opacity="1" fill-rule="nonzero"/></g><path fill="#f5fbf9" d="M 110.007812 163.152344 L 113.21875 160.773438 C 113.355469 160.675781 113.414062 160.496094 113.355469 160.335938 C 113.296875 160.179688 113.15625 160.058594 112.980469 160.058594 L 106.519531 160.058594 C 106.34375 160.058594 106.203125 160.179688 106.144531 160.335938 C 106.085938 160.496094 106.144531 160.675781 106.28125 160.773438 L 109.511719 163.152344 C 109.589844 163.210938 109.671875 163.230469 109.75 163.230469 C 109.867188 163.230469 109.949219 163.210938 110.007812 163.152344 Z M 110.007812 163.152344 " fill-opacity="1" fill-rule="nonzero"/></svg>