<?xml version="1.0" standalone="no"?>
<!DOCTYPE svg PUBLIC "-//W3C//DTD SVG 20010904//EN"
 "http://www.w3.org/TR/2001/REC-SVG-20010904/DTD/svg10.dtd">
<svg version="1.0" xmlns="http://www.w3.org/2000/svg"
 width="1000.000000pt" height="249.000000pt" viewBox="0 0 1000.000000 249.000000"
 preserveAspectRatio="xMidYMid meet">

<g transform="translate(0.000000,249.000000) scale(0.100000,-0.100000)"
fill="#0D3350" stroke="none">
<path d="M1199 2319 c-32 -32 -23 -88 18 -114 l32 -20 1 -116 c0 -204 26 -251
213 -384 91 -65 127 -96 127 -111 0 -15 -31 -43 -116 -104 -205 -147 -217
-169 -222 -377 -3 -115 -7 -143 -18 -143 -26 0 -54 -39 -54 -74 0 -25 7 -40
26 -55 26 -21 37 -21 450 -21 414 0 424 0 445 21 15 15 19 30 17 62 -3 36 -7
44 -35 57 l-33 15 0 127 c0 103 -4 138 -20 181 -26 68 -58 101 -203 207 -68
49 -117 92 -117 102 0 9 53 55 129 111 193 143 211 174 211 376 l1 126 32 20
c26 16 33 28 35 59 2 25 -2 44 -14 57 -16 18 -37 19 -451 19 -424 0 -433 0
-454 -21z m811 -256 c0 -114 -3 -134 -24 -178 -28 -60 -46 -76 -198 -189 -116
-84 -118 -87 -118 -125 0 -39 1 -40 134 -137 189 -135 206 -165 206 -360 l0
-124 -35 0 -35 0 0 118 c-1 174 -13 192 -237 348 l-51 36 -121 -87 c-157 -114
-171 -138 -171 -303 l0 -113 -32 3 -33 3 0 135 c0 191 7 202 216 353 l114 82
2 45 3 45 -131 95 c-72 52 -142 109 -156 127 -39 51 -53 114 -53 240 l0 113
360 0 360 0 0 -127z"/>
<path fill="#cc6d3d" d="M1437 1874 c-4 -4 -7 -11 -7 -15 0 -10 206 -159 220 -159 20 0 221
152 217 164 -4 12 -418 22 -430 10z"/>
<path d="M162 1904 l3 -106 135 -1 135 -2 3 -337 2 -338 125 0 125 0 2 338 3
337 122 0 c68 0 127 5 131 10 5 6 15 46 21 90 7 44 15 88 17 98 5 16 -19 17
-411 17 l-416 0 3 -106z"/>
<path d="M2466 1918 c-3 -51 -8 -192 -11 -313 -3 -121 -8 -280 -11 -352 l-7
-133 117 0 116 0 1 153 c2 240 -1 239 108 28 l93 -181 87 0 87 0 94 183 c110
213 107 214 109 -25 l1 -158 120 0 120 0 -5 223 c-3 122 -8 322 -11 445 l-6
223 -100 -3 -100 -3 -146 -287 c-81 -158 -149 -288 -152 -288 -3 0 -72 131
-153 290 l-148 290 -99 0 -98 0 -6 -92z"/>
<path d="M4190 1565 l0 -445 320 0 320 0 4 23 c3 12 7 59 9 105 l5 82 -209 0
-209 0 0 65 0 65 187 2 187 3 -1 100 -2 100 -185 3 -186 2 0 65 0 65 205 0
205 0 0 105 0 105 -325 0 -325 0 0 -445z"/>
<path d="M5480 1565 l0 -445 305 0 305 0 0 59 c0 32 3 79 6 105 l7 46 -187 0
-186 0 -2 338 -3 337 -122 3 -123 3 0 -446z"/>
<path d="M6720 1565 l0 -445 120 0 120 0 0 445 0 445 -120 0 -120 0 0 -445z"/>
<path d="M7660 1565 l0 -445 115 0 115 0 0 235 c0 129 4 235 8 235 5 0 85
-106 178 -235 l169 -235 113 0 112 0 0 445 0 445 -120 0 -120 0 -2 -241 -3
-241 -174 241 -174 241 -108 0 -109 0 0 -445z"/>
<path d="M9160 1565 l0 -445 325 0 325 0 0 44 c0 23 3 71 6 105 l7 61 -207 0
-206 0 0 65 0 65 185 0 185 0 0 105 0 105 -185 0 -185 0 0 65 0 65 200 0 200
0 0 105 0 105 -325 0 -325 0 0 -445z"/>
<path d="M3350 713 l0 -53 80 0 80 0 0 -265 0 -265 65 0 65 0 -2 263 -2 262
77 3 77 3 0 52 0 52 -220 0 -220 0 0 -52z"/>
<path d="M4330 449 l0 -319 60 0 60 0 0 135 0 135 115 0 115 0 0 -135 0 -135
60 0 60 0 0 318 0 318 -60 2 -60 2 0 -130 0 -130 -115 0 -115 0 0 130 0 130
-60 -1 -60 -1 0 -319z"/>
<path d="M5436 462 c-60 -169 -112 -313 -114 -319 -3 -10 13 -13 60 -13 l64 0
23 70 22 71 112 -3 112 -3 21 -65 20 -65 67 -3 c37 -2 67 1 67 5 0 4 -50 148
-112 320 l-113 312 -60 0 -60 0 -109 -307z m202 40 c18 -54 32 -103 32 -110 0
-8 -23 -12 -71 -12 -63 0 -71 2 -66 18 24 86 63 202 67 202 3 0 20 -44 38 -98z"/>
<path d="M6340 714 l0 -54 80 0 80 0 0 -265 0 -265 65 0 65 0 0 265 0 265 80
0 80 0 0 53 0 52 -225 1 -225 1 0 -53z"/>
</g>
</svg>
